# xmcd
#
# Track frame offsets:
#       150
#       33944
#       64849
#       92170
#       119670
#       146111
#       177662
#       212615
#       245539
#       273873
#       305740
#
# Disc length: 4676 seconds
#
# Revision: 1
# Processed by: cddbd v1.5.2PL0 Copyright (c) Steve Scherf et al.
# Submitted via: WaveLab 4.01
#
DISCID=a912420b
DTITLE=Promo Only CD Pool - UK Underground Beats Jan 2007 CD B
DYEAR=2007
DGENRE=Electronic
TTITLE0=Tim Andressen - Everybody (Ben Macklin Remix)
TTITLE1=Dynamic Rockers - Back Again (Original Mix)
TTITLE2=Roxanne - Rockstar (Original Mix)
TTITLE3=Cass and Slide - Lost Life (Lottie Remix)
TTITLE4=Physics - Batucada (Phatzoo Remix)
TTITLE5=Masi and Mello ft. Tiffanie - Kiss My Love (Sted-E Electro Love Dub)
TTITLE6=Offer Nissim ft. Maya - Perfect Love (Peter Rauhofer Reconstruction Mix)
TTITLE7=D.O.S. ft. Kostantia - Synthesize Me (Dub Mix)
TTITLE8=Boosta - Dance Is Dead (Tocadisco Remix)
TTITLE9=Ciaran Campbell - Cyberfunk (Original Mix)
TTITLE10=Hatiras ft. Lisa Law - Andromeda (Epic Instrumental)
EXTD=
EXTT0=
EXTT1=
EXTT2=
EXTT3=
EXTT4=
EXTT5=
EXTT6=
EXTT7=
EXTT8=
EXTT9=
EXTT10=
PLAYORDER=
